<svg width="20" height="45.11" xmlns="http://www.w3.org/2000/svg"><g><path d="M19.192 9.551h-1.347V.795A.795.795 0 0 0 17.063 0H2.92a.795.795 0 0 0-.795.795V9.55H.777a.795.795 0 0 0-.777.777v14.418a10.005 10.005 0 0 0 5.258 8.801l.05.023v4.598c0 .439.355.795.794.795H7.45v5.348a.795.795 0 0 0 .795.794h3.52a.8.8 0 0 0 .808-.795l.001-5.334h1.347a.795.795 0 0 0 .759-.808V33.57l.05-.027a10.005 10.005 0 0 0 5.258-8.801v-2.46a.795.795 0 0 0-1.59 0v2.46l.002.195a8.406 8.406 0 1 1-16.81-.195V11.14H18.41v3.189a.795.795 0 0 0 1.59 0v-4.001a.795.795 0 0 0-.808-.777zm-9.982.005H3.713V1.59H9.21v7.966zm7.067 0H10.8V1.59h5.479v7.966zm-9.38 24.696l.117.036a9.879 9.879 0 0 0 5.887 0v-.027h.121v.09h.076v3.022h-6.2v-3.12zm4.073 9.268H9.02v-4.544h1.949v4.544zm-3.52.79z" fill="#fff" fill-rule="evenodd"/><path d="M13.547 6.353l-.009.009h.006c.21 0 .41-.084.556-.233a.786.786 0 0 0 .233-.562.795.795 0 0 0-1.347-.561.795.795 0 0 0 .561 1.347zM6.475 6.363a.781.781 0 0 0 .561-.234.786.786 0 0 0 .234-.561.795.795 0 1 0-1.347.566.79.79 0 0 0 .552.229zM10.726 25.307l1.913-4.334a.79.79 0 0 0-.727-1.113H9.289l1.433-3.22a.795.795 0 0 0-1.455-.642l-1.922 4.333a.776.776 0 0 0-.077.321v.017c0 .157.047.31.135.44a.786.786 0 0 0 .665.363h2.631l-1.423 3.215a.799.799 0 0 0 .39 1.042h.023a.777.777 0 0 0 .31.054.79.79 0 0 0 .727-.476zM19.187 17.51h-.011a.777.777 0 0 0-.555.233.795.795 0 1 0 1.127 1.114.795.795 0 0 0-.561-1.347z" fill="#fff" fill-rule="evenodd"/></g></svg>