<svg width="46.353" height="25.617" xmlns="http://www.w3.org/2000/svg"><path d="M46.287 24.532l-.946-2.128h.245a.773.773 0 0 0 .707-1.087h-.006L37.017.462a.772.772 0 0 0-.706-.46h-26.26a.772.772 0 0 0-.706.46L.075 21.317a.772.772 0 0 0 .706 1.087h.24l-.947 2.128a.772.772 0 0 0 .707 1.087h44.805a.773.773 0 0 0 .707-1.087h-.006zm-14.709-.456l-1.561-.004-14.4.004H1.97l.742-1.672h40.944l.743 1.672H31.58zm-1.561-3.22l-14.4.005 1.288-6.956h12.082l1.03 6.952zm14.382.005H31.58l-1.03-6.952H41.31l3.088 6.952zM5.058 13.909h10.274l-1.282 6.952H1.97l3.088-6.952zm22.778-7.736l.915 6.177H17.187l1.145-6.177h9.504zm12.79 6.188H30.315l-.91-6.176h8.475l2.748 6.176zM8.498 6.185h8.263l-1.145 6.176H5.746l2.751-6.176zM19.189 1.54h7.96l.458 3.088h-8.99l.572-3.088zm16.621 0l1.373 3.088H29.17l-.458-3.088h7.099zm-25.254.011h7.064l-.564 3.089H9.18l1.377-3.089z" fill="#fff" fill-rule="evenodd"/></svg>