<svg width="42.368" height="42.433" xmlns="http://www.w3.org/2000/svg"><path d="M41.778 42.44H0v-4.392c.044-.097.101-.187.171-.268.326-.368.808-.311 1.258-.311.096 0 .191-.004.286-.013v-9.932a3.431 3.431 0 0 0-.13-.002c-.604 0-1.244.122-1.585-.58v-.497c.044-.098.102-.188.173-.27.396-.445 1.025-.265 1.564-.324v-.545c0-8.058.004-16.116-.008-24.174v-.004c0-.463.117-.813.478-1.055.036-.024.072-.046.11-.066h21.178c.117.062.223.144.313.242.203.226.274.52.274.88v.005c-.007 5.079-.01 10.158-.009 15.236v9.473h2.622a5.975 5.975 0 0 1-.705-2.167 4.531 4.531 0 0 1-.024-.428c-.01-1.52-.019-3.039 0-4.558.012-1.05.449-2.05 1.211-2.771.156-.15.32-.293.49-.427.087-.07.174-.14.258-.211a8.06 8.06 0 0 1-.217-2.046c.007-.446.035-.89.085-1.334.206-1.943 1.87-3.412 3.86-3.47h.111a3.934 3.934 0 0 1 3.887 3.26 10.633 10.633 0 0 1 .115 1.99c-.02.466-.075.93-.168 1.388a.437.437 0 0 0 .11.344 4.182 4.182 0 0 0 .392.327c.102.076.202.153.302.23.068-.045.135-.094.202-.142.13-.097.267-.185.409-.263.307-.16.394-.384.39-.73-.022-1.56-.007-3.121-.011-4.682-.001-.633.184-1.197.594-1.679a2.475 2.475 0 0 1 4.365 1.554c.002.374.004.747.004 1.12 0 1.685-.019 3.37.012 5.054l.001.08c0 1.1-.43 1.91-1.335 2.55a110.048 110.048 0 0 0-2.423 1.782c-.532.4-1.067.798-1.603 1.192-.228.166-.307.342-.303.617.015 1.008.005 2.016.007 3.024 0 .074.004.148.01.222l.012.165.002.03h1.548c1.04 0 2.079 0 3.118.002.554.002.92.305.95.767a.952.952 0 0 1 .003.063c0 .492-.38.818-.964.826l-.272.001h-.473v9.945h.229c.17-.001.332-.002.493 0 .125 0 .249.013.37.04.316.077.504.264.58.579.027.12.04.243.039.367v.22c0 .502-.006 1.005-.006 1.507 0 .377.004.755.015 1.132.015.455-.108.8-.452 1.043-.044.03-.089.059-.135.084zM5.046 25.85v-.539V4.55l-.001-.23c0-.062.001-.123.005-.184a.951.951 0 0 1 .151-.465.752.752 0 0 1 .635-.34 108.645 108.645 0 0 1 3.391 0 .774.774 0 0 1 .6.298.841.841 0 0 1 .18.522.829.829 0 0 1-.764.822c-.071.006-.142.01-.214.009-.08 0-.159-.003-.238-.003H6.73v20.852h3.28v-.53a185251.297 185251.297 0 0 0 0-15.954c0-.764.287-1.05 1.048-1.052h3.64c.13-.001.262.007.392.026.534.085.71.389.71 1.095l.001 7.976v8.451h3.283V4.98c-.783 0-1.539.002-2.295-.001-.597-.003-.97-.312-.984-.803v-.019c-.004-.378.21-.659.571-.775.13-.04.264-.06.4-.059.937-.004 1.874-.001 2.812 0 .136-.002.272.005.407.02.603.076.77.37.77 1.15V25.84h1.625V1.685H3.417v24.164h1.63zm35.637 13.304H1.688v1.609h38.995v-1.609zM14.118 25.846V9.986h-2.432v15.86h2.432zm20.937-.008v-.472c0-.33.002-.661.004-.991.005-.803.01-1.605-.014-2.406-.014-.486.129-.834.468-1.119a1.94 1.94 0 0 1 .168-.126 27.34 27.34 0 0 0 1.296-.945c.167-.127.334-.254.502-.379.06-.044.118-.089.177-.134l.404-.314a16831.17 16831.17 0 0 1-1.024-1.375 8.655 8.655 0 0 1-.207.122c-.715.411-.908.32-1.516-.406-.162-.194-.365-.353-.568-.539a5.251 5.251 0 0 1-.042-.04c-.39.405-.854.733-1.365.967a3.902 3.902 0 0 1-1.614.332 4.04 4.04 0 0 1-2.86-1.203 5.613 5.613 0 0 1-.076-.074c-.275.183-.517.41-.718.672a2.295 2.295 0 0 0-.453 1.397 262.78 262.78 0 0 0 .003 4.35 4 4 0 0 0 .881 2.405.923.923 0 0 0 .162.172.683.683 0 0 0 .457.14c1.655-.013 3.311-.008 4.967-.008h.574c.12 0 .239-.015.394-.026zM5.845 37.45v-9.907h-2.43v9.907h2.43zm8.272 0v-9.907h-2.43v9.907h2.43zM28.24 27.54v9.908h2.43V27.54h-2.43zm-1.713 9.908v-9.893h-2.432v9.893h2.432zm-6.561-9.907v9.893h2.432v-9.893h-2.432zm18.98.01h-2.43v9.894h2.43v-9.893zM15.81 37.434h2.446v-9.878H15.81v9.878zm16.567-9.892v9.893h2.43V27.54h-2.43zm-24.818 0v9.892h2.43v-9.892h-2.43zm31.836-9.57l.005-.003c.271-.2.493-.386.735-.538.122-.075.23-.169.32-.278.183-.227.257-.504.257-.844v-.025c-.02-1.999-.008-3.998-.01-5.997a1.634 1.634 0 0 0-.044-.397c-.101-.4-.369-.622-.77-.628-.489-.006-.786.309-.832.878-.005.054-.007.11-.007.164 0 .428-.001.856-.003 1.283-.003 1.214-.006 2.426.01 3.639l.001.095c0 .464-.057.879-.436 1.156a1.291 1.291 0 0 1-.235.134 10978.22 10978.22 0 0 0 1.009 1.361zm-5.336-4.716h.024c0-.096 0-.192.002-.287l.001-.287a9.34 9.34 0 0 0-.005-.337 2.333 2.333 0 0 0-2.174-2.25c-1.224-.083-2.316.744-2.458 1.96a10.23 10.23 0 0 0-.067 1.169v.012c0 .364.019.727.056 1.088a2.22 2.22 0 0 0 .874 1.564c.406.303.899.467 1.405.468a2.31 2.31 0 0 0 2.333-1.985c.02-.136.029-.273.027-.41 0-.119-.004-.237-.01-.356a8.952 8.952 0 0 1-.008-.35z" fill="#fff" fill-rule="evenodd"/></svg>