<svg width="36.54" height="36.6" xmlns="http://www.w3.org/2000/svg"><g><path d="M28.982 3.655H.83a.805.805 0 0 0 0 1.61h28.153a2.258 2.258 0 0 1 2.256 2.255v28.282a.805.805 0 0 0 1.61 0V7.52a3.87 3.87 0 0 0-3.866-3.865z" fill="#fff" fill-rule="evenodd"/><path d="M28.838-.002h-28a.805.805 0 0 0 0 1.61h28a6.108 6.108 0 0 1 6.1 6.1v28.084a.805.805 0 0 0 1.61 0V7.708a7.72 7.72 0 0 0-7.71-7.71z" fill="#fff" fill-rule="evenodd"/><path d="M28.396 7.296H.804a.805.805 0 0 0-.805.805V35.692c0 .445.36.805.805.805h27.592a.805.805 0 0 0 .804-.805V8.101a.805.805 0 0 0-.804-.805zm-.805 9.197h-7.588V8.906h7.588v7.587zM20.003 27.3h7.588v7.588h-7.588V27.3zm0-9.197h7.588v7.587h-7.588v-7.587zm-1.61-1.61h-7.587V8.906h7.587v7.587zM9.196 8.906v7.587H1.61V8.906h7.587zM1.61 27.3h7.587v7.588H1.61V27.3zm9.197 0h7.587v7.588h-7.587V27.3zM1.61 18.103h7.587v7.587H1.61v-7.587zm9.197 0h7.587v7.587h-7.587v-7.587z" fill="#fff" fill-rule="evenodd"/></g></svg>