<svg width="42.76" height="41.597" xmlns="http://www.w3.org/2000/svg"><path d="M41.961 0H.813A.813.813 0 0 0 0 .813v5.185a.818.818 0 0 0 .813.808h1.71V40.78c0 .45.364.815.814.818h36.091a.818.818 0 0 0 .813-.819V6.806h1.7a.822.822 0 0 0 .579-.236.813.813 0 0 0 .24-.577V.813A.813.813 0 0 0 41.96 0zM4.145 39.965V22.873h28.32v3.14a2.81 2.81 0 1 0 1.63 0v-3.14h4.52v17.092H4.145zM1.63 5.155V1.631h39.517V5.18L1.631 5.155zm30.833 5.426H4.13V6.806h28.334v3.776zm0 6.96v3.7H4.144v-3.7h28.32zm-28.32-1.627v-3.701h28.32v3.701H4.144zm29.947-5.337v-3.77h4.514l.03 3.774-4.544-.004zm0 10.66v-3.696h4.514l.03 3.7-4.544-.004zm0-5.328v-3.696h4.514l.03 3.701-4.544-.005zm.32 12.79a1.139 1.139 0 1 0-2.277 0 1.139 1.139 0 0 0 2.277 0z" fill="#fff" fill-rule="evenodd"/></svg>