<svg width="41.83" height="33" xmlns="http://www.w3.org/2000/svg"><g><path d="M36.834 0H4.977A4.995 4.995 0 0 0-.012 4.99v12.072a4.995 4.995 0 0 0 4.99 4.99h31.856a4.995 4.995 0 0 0 4.989-4.99V4.99A4.995 4.995 0 0 0 36.833 0zm0 20.288h-1.969v-.753a4.953 4.953 0 0 0-4.947-4.948H11.893a4.953 4.953 0 0 0-4.947 4.948v.753H4.977a3.23 3.23 0 0 1-3.226-3.226V4.99a3.23 3.23 0 0 1 3.226-3.225h31.857A3.23 3.23 0 0 1 40.06 4.99v12.072a3.23 3.23 0 0 1-3.226 3.226zm-3.733 0H8.71v-.753a3.187 3.187 0 0 1 3.183-3.183h18.025a3.187 3.187 0 0 1 3.183 3.183v.753zM20.029 24.95v7.163a.883.883 0 0 0 1.764 0V24.95a.883.883 0 0 0-1.764 0zM25.71 28.738V24.95a.883.883 0 0 0-1.764 0v3.788a4.26 4.26 0 0 0 4.256 4.257.883.883 0 0 0 0-1.764 2.496 2.496 0 0 1-2.492-2.493zM16.11 24.95v3.788a2.496 2.496 0 0 1-2.492 2.493.883.883 0 0 0 0 1.764 4.261 4.261 0 0 0 4.256-4.257V24.95a.883.883 0 0 0-1.764 0z" fill="#fff" fill-rule="evenodd"/><path d="M32.84 10.658h-1.563a.852.852 0 0 0 0 1.701h1.564a.852.852 0 0 0 0-1.701zM26.95 10.658h-1.564a.852.852 0 0 0 0 1.701h1.564a.85.85 0 0 0 0-1.701z" fill="#fff" fill-rule="evenodd"/></g></svg>