<svg width="14" height="18" xmlns="http://www.w3.org/2000/svg"><g><path d="M3.674 14.14l2.954 3.676a.57.57 0 0 0 .394.18l.025-.001a.433.433 0 0 0 .28-.127.563.563 0 0 0 .048-.053c.32-.4.638-.803.952-1.208.652-.833 1.325-1.695 2.007-2.473C11.968 12.116 14 9.604 14 6.85c0-3.778-3.14-6.854-7-6.854a6.937 6.937 0 0 0-7 6.854 8.525 8.525 0 0 0 1.616 4.558c.624.959 1.346 1.854 2.007 2.67l.05.062zm5.918-.59l-.005.006a79.86 79.86 0 0 1-1.736 2.173 252.297 252.297 0 0 0-.85 1.045l-2.585-3.216c-.246-.302-.49-.605-.73-.91C2.69 11.381 1.685 9.96 1.22 8.48a5.44 5.44 0 0 1-.266-1.63A5.991 5.991 0 0 1 7 .93c3.334 0 6.047 2.657 6.047 5.92a6.795 6.795 0 0 1-.982 3.254c-.678 1.22-1.602 2.368-2.426 3.387l-.048.058z" fill="#fff" fill-rule="evenodd"/><path d="M7.001 3.371a3.544 3.544 0 0 0-3.585 3.494 3.544 3.544 0 0 0 3.585 3.493c1.977 0 3.585-1.567 3.585-3.493 0-1.927-1.608-3.494-3.585-3.494zm0 6.045a2.588 2.588 0 0 0 2.618-2.551c0-1.407-1.174-2.552-2.618-2.552s-2.62 1.145-2.62 2.552a2.589 2.589 0 0 0 2.62 2.551z" fill="#fff" fill-rule="evenodd"/></g></svg>