<svg width="26.2" height="24.62" xmlns="http://www.w3.org/2000/svg"><g><path d="M10.05 7.56H8.987a.607.607 0 0 0 0 1.214h1.063a.607.607 0 1 0 0-1.214zM5.8 7.56H4.737a.607.607 0 0 0 0 1.214H5.8a.607.607 0 0 0 0-1.214zM13.237 8.774H14.3a.607.607 0 1 0 0-1.214h-1.063a.607.607 0 0 0 0 1.214zM17.487 8.774h1.063a.607.607 0 1 0 0-1.214h-1.063a.607.607 0 0 0 0 1.214zM10.05 11.11H8.987a.607.607 0 0 0 0 1.214h1.063a.607.607 0 1 0 0-1.214zM5.8 11.11H4.737a.607.607 0 0 0 0 1.214H5.8a.607.607 0 0 0 0-1.214zM10.05 14.63H8.987a.607.607 0 1 0 0 1.214h1.063a.607.607 0 1 0 0-1.214zM5.8 14.63H4.737a.607.607 0 1 0 0 1.214H5.8a.607.607 0 0 0 0-1.214z" fill="#fff" fill-rule="evenodd"/><path d="M23.286 11.415V4.858a3.036 3.036 0 0 0-3.036-3.036h-.212V.607a.607.607 0 0 0-1.215 0v1.184h-2.672V.607a.607.607 0 0 0-1.214 0v1.184h-2.672V.607a.607.607 0 0 0-1.214 0v1.184H8.349V.607a.607.607 0 1 0-1.214 0v1.184H4.463V.607a.607.607 0 1 0-1.215 0v1.184h-.212A3.036 3.036 0 0 0 0 4.827v12.266a3.036 3.036 0 0 0 3.036 3.036h9.047a7.347 7.347 0 1 0 11.203-8.714zM1.214 17.093V4.858c0-1.006.816-1.822 1.822-1.822h.212v.88a.607.607 0 1 0 1.215 0v-.88h2.672v.88a.607.607 0 1 0 1.214 0v-.88h2.672v.88a.607.607 0 1 0 1.214 0v-.88h2.702v.88a.607.607 0 1 0 1.214 0v-.88h2.672v.88a.607.607 0 1 0 1.215 0v-.88h.212c1.006 0 1.822.816 1.822 1.822v5.798a7.34 7.34 0 0 0-7.408.577.607.607 0 0 0-.364-.121h-1.063a.607.607 0 1 0 0 1.214h.182a7.348 7.348 0 0 0-1.76 6.588H3.035a1.822 1.822 0 0 1-1.822-1.821zm11.537.213a6.133 6.133 0 0 0 6.103 6.132 6.163 6.163 0 0 0 6.163-6.163 6.133 6.133 0 0 0-12.266.03z" fill="#fff" fill-rule="evenodd"/><path d="M21.34 17.214h-2.216v-3.127a.607.607 0 0 0-1.214 0v3.735c0 .335.272.607.607.607h2.854a.607.607 0 1 0 0-1.215h-.03z" fill="#fff" fill-rule="evenodd"/></g></svg>