<svg width="25.66" height="23.12" xmlns="http://www.w3.org/2000/svg"><g><path d="M14.48.006c-.196 0-.391.005-.586.015-4.22.221-8.441 2.807-9.923 6.688a8.433 8.433 0 0 0-.4 1.394c-.264 1.356-.195 3.37-.61 4.58a2.82 2.82 0 0 1-.115.288 1.66 1.66 0 0 1-.202.33c-.714.895-1.886-.004-2.5 1.227a1.345 1.345 0 0 0 .13 1.41c1.388 1.842 3.137 2.961 5.103 3.638a2.682 2.682 0 0 0-.126 1.078 2.697 2.697 0 0 0 5.384-.151 49.19 49.19 0 0 0 3.882.06c.024 1.1.728 2.07 1.767 2.434a2.9 2.9 0 0 0 1.138.114 2.697 2.697 0 0 0 2.293-3.639c.948-.454 1.866-1.084 2.784-1.953l.07-.067C27.847 12.388 25.9 4.696 20.251 1.49A11.61 11.61 0 0 0 14.48.006zm4.433 18.341a2.687 2.687 0 0 0-1.703-.622h-.015a3.014 3.014 0 0 0-1.123.218 2.421 2.421 0 0 0-1.312 1.268c-.428.017-.84.02-1.218.02-.63.002-1.26-.006-1.89-.023a35.418 35.418 0 0 1-1.338-.064 2.698 2.698 0 0 0-4.185-.721 9.456 9.456 0 0 1-4.183-2.58 9.258 9.258 0 0 1-.599-.716c3.802 0 3.051-4.25 3.544-6.769a8.86 8.86 0 0 1 5.602-6.21 10.807 10.807 0 0 1 3.249-.77c.245-.019.491-.028.737-.028 6.058 0 11.449 5.408 9.364 11.75-.766 2.329-2.78 4.253-4.93 5.247zM7.937 21.831a1.408 1.408 0 1 0 0 0zm9.384-.005a1.408 1.408 0 1 1-.242-2.805 1.408 1.408 0 0 1 .242 2.805z" fill="#fff" fill-rule="evenodd"/><path d="M10.917 9.331a1.29 1.29 0 1 0 0-2.58 1.29 1.29 0 0 0 0 2.58zM15.8 7.84a1.29 1.29 0 1 1 2.581 0 1.29 1.29 0 0 1-2.581 0zM17.377 11.52c.011-.036.021-.074.03-.112.204-.865 1.512-.558 1.309.308a3.624 3.624 0 0 1-.594 1.28 4.626 4.626 0 0 1-1.888 1.504c-.7.307-1.457.463-2.221.458a4.896 4.896 0 0 1-3.334-1.28 3.73 3.73 0 0 1-1.22-2.285c-.067-.765.953-.96 1.258-.392.043.082.07.17.08.262.042.352.174.687.382.973.601.85 1.788 1.377 2.848 1.377a3.152 3.152 0 0 0 .24-.007c1.684-.1 2.814-1.093 3.11-2.085z" fill="#fff" fill-rule="evenodd"/></g></svg>