<svg width="18" height="18.01" xmlns="http://www.w3.org/2000/svg"><path d="M14.333 17.151l-7.403.018a1.358 1.358 0 0 0 .117-.548v-3.699a.397.397 0 0 0-.794 0v3.699a.566.566 0 0 1-.469.551l-2.113.005A2.812 2.812 0 0 1 .86 14.366V6.323c.167.072.352.111.545.111h3.699a.424.424 0 1 0 0-.849H1.405a.544.544 0 0 1-.543-.544V3.653A2.81 2.81 0 0 1 3.67.866h7.731c.27.031.482.253.482.53v5.731c0 .3-.243.544-.543.544H9.917a.425.425 0 1 0 0 .849h1.423c.77 0 1.393-.624 1.394-1.393V1.396a1.373 1.373 0 0 0-.106-.53h1.705a2.81 2.81 0 0 1 2.811 2.811l.009 2.332-.009 8.331a2.811 2.811 0 0 1-2.811 2.811zm0-17.142h-2.944a.252.252 0 0 1-.021-.002.194.194 0 0 0-.028-.003H9.917l-.009.001-.014.004H3.67A3.669 3.669 0 0 0 .002 3.678V14.34a3.67 3.67 0 0 0 3.669 3.669h10.662a3.67 3.67 0 0 0 3.669-3.669V3.678A3.669 3.669 0 0 0 14.333.009z" fill="#fff" fill-rule="evenodd" style="stroke:none;stroke-width:0;stroke-dasharray:none;stroke-linecap:butt;stroke-dashoffset:0;stroke-linejoin:miter;stroke-miterlimit:4;fill:#fff;fill-rule:evenodd;opacity:1"/></svg>