<svg width="18" height="18" xmlns="http://www.w3.org/2000/svg"><g><path d="M14.331 0H3.67A3.669 3.669 0 0 0 0 3.669V14.33A3.669 3.669 0 0 0 3.669 18H14.33A3.669 3.669 0 0 0 18 14.331V3.67A3.669 3.669 0 0 0 14.331 0zM5.143 17.169H3.669A2.812 2.812 0 0 1 .857 14.33V3.67A2.811 2.811 0 0 1 3.67.857H14.33a2.812 2.812 0 0 1 2.812 2.812v1.5a12.411 12.411 0 0 0-12 12zm9.188-.026H6.01A11.589 11.589 0 0 1 17.15 6l-.008 8.331a2.812 2.812 0 0 1-2.812 2.812zM3.67 0zm0 18A3.669 3.669 0 0 1 0 14.331" fill="#fff" fill-rule="evenodd"/><path d="M5.3 2.8a2.5 2.5 0 1 0 0 5 2.5 2.5 0 0 0 0-5zM3.8 5.3a1.5 1.5 0 1 0 3 0 1.5 1.5 0 0 0-3 0zm1.5 1.5a1.5 1.5 0 0 1-1.5-1.5" fill="#fff" fill-rule="evenodd"/></g></svg>