<svg width="159.6" height="21.54" viewBox="0 0 79.8 10.77" xmlns="http://www.w3.org/2000/svg"><g><path d="M8.66 7.926V9.81c-.444.32-.938.564-1.463.722-.393.116-.797.19-1.206.219a6.76 6.76 0 0 1-.51.019 6.305 6.305 0 0 1-1.467-.166 5.524 5.524 0 0 1-.707-.22A5.047 5.047 0 0 1 1.552 9.25 5.045 5.045 0 0 1 .401 7.517 5.624 5.624 0 0 1-.002 5.39a5.583 5.583 0 0 1 .403-2.118 5.105 5.105 0 0 1 1.166-1.74A5.135 5.135 0 0 1 3.317.388 5.673 5.673 0 0 1 5.133.007c.107-.005.214-.008.32-.008a5.612 5.612 0 0 1 3.022.867c.099.061.196.125.29.19l-.09 1.681a5.397 5.397 0 0 0-.987-.673 4.603 4.603 0 0 0-2.164-.531 4.267 4.267 0 0 0-1.285.185c-.55.171-1.05.478-1.45.893a3.65 3.65 0 0 0-1.01 2.124c-.03.222-.045.446-.044.67-.004.447.06.892.19 1.32.164.531.45 1.017.835 1.419A3.401 3.401 0 0 0 5.24 9.22l.11.001A4.712 4.712 0 0 0 7.08 8.9a5.196 5.196 0 0 0 1.125-.616c.157-.112.308-.232.455-.358zM11.124 5.796c-.186.435-.28.903-.277 1.376a3.485 3.485 0 0 0 1.071 2.535 3.659 3.659 0 0 0 2.57 1.05 3.695 3.695 0 0 0 2.613-1.064c.345-.332.608-.712.788-1.142.18-.43.27-.89.27-1.38 0-.471-.092-.921-.274-1.351a3.52 3.52 0 0 0-.799-1.155A3.581 3.581 0 0 0 15.9 3.88a3.748 3.748 0 0 0-1.412-.266c-.485 0-.95.089-1.393.266a3.582 3.582 0 0 0-1.177.763c-.339.328-.61.72-.794 1.153zm5.43 1.39a2.374 2.374 0 0 0-.156-.872 2.179 2.179 0 0 0-.439-.694 1.983 1.983 0 0 0-.719-.504 1.968 1.968 0 0 0-.737-.136 1.905 1.905 0 0 0-1.454.64 2.203 2.203 0 0 0-.598 1.566c-.003.3.05.598.159.878.102.254.251.487.44.687.19.208.42.374.68.488.244.103.507.155.773.153a1.904 1.904 0 0 0 1.452-.641 2.201 2.201 0 0 0 .6-1.565zM20.481 10.494V3.855h1.428v1.086c.131-.2.284-.386.454-.554.182-.18.39-.33.618-.448.386-.197.851-.302 1.394-.314l.105-.001c.19 0 .379.012.566.039a2.749 2.749 0 0 1 .698.196 1.832 1.832 0 0 1 1.006 1.105 2.246 2.246 0 0 1 .095.445c.03.25.043.603.043 1.058v4.027h-1.533v-3.41c0-.19-.006-.378-.018-.566-.037-.557-.136-.946-.295-1.167a.746.746 0 0 0-.006-.008c-.166-.224-.433-.361-.8-.41a2.51 2.51 0 0 0-.33-.02 2.467 2.467 0 0 0-.53.054 1.98 1.98 0 0 0-.42.142c-.174.08-.332.19-.468.325a1.497 1.497 0 0 0-.42.84c-.035.19-.056.466-.064.827-.002.122-.003.245-.003.368v3.025h-1.52zM29.624 10.494V3.855h1.428v1.086c.304-.458.66-.792 1.072-1.002.227-.114.469-.196.718-.243a3.896 3.896 0 0 1 .78-.072c.19 0 .38.012.567.039a2.744 2.744 0 0 1 .698.196c.347.156.62.388.816.696.079.125.142.258.187.398a2.223 2.223 0 0 1 .098.456c.03.25.044.603.044 1.058v4.027h-1.534v-3.41c0-.19-.005-.378-.017-.566-.039-.563-.14-.955-.302-1.175-.166-.224-.433-.361-.8-.41-.11-.014-.22-.02-.33-.02a2.466 2.466 0 0 0-.53.054 1.973 1.973 0 0 0-.42.142 1.57 1.57 0 0 0-.654.553c-.057.082-.104.17-.14.263a1.767 1.767 0 0 0-.095.35 3.045 3.045 0 0 0-.029.215 7.929 7.929 0 0 0-.033.61c-.003.123-.004.246-.004.369v3.025h-1.52zM45.17 7.389h-5.308c.011.204.043.406.094.604.066.245.164.46.293.645a1.655 1.655 0 0 0 1.168.704c.107.015.214.022.322.021.44 0 .813-.082 1.12-.246a2.016 2.016 0 0 0 .537-.433c.113-.127.219-.272.318-.437.037-.06.072-.123.105-.186l1.282.714c-.374.668-.836 1.165-1.387 1.492-.551.327-1.197.49-1.94.49a4.236 4.236 0 0 1-1.106-.137 3.08 3.08 0 0 1-1.436-.836 3.269 3.269 0 0 1-.862-1.691 4.714 4.714 0 0 1-.083-.907 4.09 4.09 0 0 1 .174-1.219c.156-.507.431-.97.803-1.348a3.277 3.277 0 0 1 2.182-.993c.109-.008.219-.012.328-.012.343-.003.685.034 1.02.108.594.138 1.088.408 1.48.81.564.576.862 1.37.894 2.383.002.062.003.124.003.187v.287zm-5.21-1.023h3.635a2.078 2.078 0 0 0-.116-.479 1.436 1.436 0 0 0-.999-.9 2.325 2.325 0 0 0-.494-.08 3.096 3.096 0 0 0-.183-.004 2.514 2.514 0 0 0-.501.047c-.275.056-.51.161-.704.317-.278.222-.48.548-.605.977l-.033.122zM52.423 8.53v1.75c-.283.16-.586.28-.9.358a4.119 4.119 0 0 1-1.02.12 4 4 0 0 1-1.194-.171 3.22 3.22 0 0 1-1.35-.824 3.356 3.356 0 0 1-.95-2.005 4.61 4.61 0 0 1-.035-.572c-.003-.4.051-.797.162-1.18a3.201 3.201 0 0 1 .857-1.408 3.45 3.45 0 0 1 1.904-.926 4.827 4.827 0 0 1 1.317-.026c.133.016.265.04.396.07.284.065.557.17.813.311v1.709a2.388 2.388 0 0 0-.816-.588 2.481 2.481 0 0 0-1.005-.203 2.333 2.333 0 0 0-.671.091 1.81 1.81 0 0 0-.821.51c-.26.282-.434.631-.504 1.008a2.955 2.955 0 0 0-.056.59c-.002.221.02.443.066.66.085.386.25.709.497.968.376.394.895.591 1.559.591.186.002.372-.018.554-.058.15-.033.295-.083.433-.148.231-.112.44-.265.614-.453.053-.056.102-.114.15-.174zM55.056 10.497V5.189h-1.163v-1.33h1.163V1.343h1.52v2.514h1.161v1.33h-1.162v5.309h-1.52zM59.826 10.5V3.863h1.52V10.5h-1.52zM59.898.335a.944.944 0 0 0-.22.979.957.957 0 0 0 .233.358.922.922 0 0 0 .685.279.906.906 0 0 0 .659-.277.927.927 0 0 0 .272-.683.918.918 0 0 0-.945-.945.949.949 0 0 0-.685.289zM63.769 7.172a3.466 3.466 0 0 1 1.072-2.529 3.58 3.58 0 0 1 1.176-.763 3.72 3.72 0 0 1 1.393-.266c.5 0 .97.089 1.412.266.44.178.836.439 1.187.785.34.327.612.72.798 1.155.182.43.273.88.273 1.352.003.473-.088.942-.27 1.38-.18.43-.448.819-.787 1.14a3.816 3.816 0 0 1-1.212.796c-.444.18-.91.27-1.4.27-.481 0-.943-.09-1.387-.27a3.588 3.588 0 0 1-1.183-.781 3.605 3.605 0 0 1-.8-1.163 3.488 3.488 0 0 1-.272-1.372zm5.707.014a2.374 2.374 0 0 0-.156-.872 2.181 2.181 0 0 0-.439-.694 1.988 1.988 0 0 0-.707-.5 1.964 1.964 0 0 0-.75-.14c-.57 0-1.053.213-1.453.64a2.203 2.203 0 0 0-.598 1.566c-.003.3.05.598.159.878.102.254.251.487.44.687.188.206.418.372.673.485.247.105.512.158.78.156a1.905 1.905 0 0 0 1.453-.641 2.203 2.203 0 0 0 .598-1.565zM73.383 10.494V3.855h1.428v1.086c.131-.2.284-.386.454-.554a2.549 2.549 0 0 1 1.336-.691 3.895 3.895 0 0 1 .78-.072c.19 0 .38.012.567.039a2.744 2.744 0 0 1 .697.196 1.832 1.832 0 0 1 1.004 1.094 2.223 2.223 0 0 1 .098.456c.03.25.043.603.043 1.058v4.027h-1.533v-3.41c0-.19-.005-.378-.017-.566-.038-.563-.139-.955-.302-1.175a.953.953 0 0 0-.424-.316 1.579 1.579 0 0 0-.377-.094c-.11-.014-.22-.02-.33-.02-.355 0-.67.065-.949.196-.174.08-.332.19-.468.325a1.497 1.497 0 0 0-.42.84 3.002 3.002 0 0 0-.03.216 7.866 7.866 0 0 0-.034.61 16.3 16.3 0 0 0-.004.369v3.025h-1.52z" fill="#fff" fill-rule="evenodd"/></g></svg>